<svg xmlns="http://www.w3.org/2000/svg" viewBox="0 0 640 440" font-family="'JetBrains Mono', ui-monospace, monospace">
  <rect width="640" height="440" fill="#ffffff"/>
  <rect x="10" y="10" width="620" height="420" fill="none" stroke="#8a9299" stroke-width="1.5"/>

  <!-- крыша -->
  <rect x="70" y="70" width="460" height="16" fill="#8a9299"/>
  <!-- стены -->
  <rect x="70" y="86" width="14" height="240" fill="#e7ebe6" stroke="#14202b" stroke-width="1.5"/>
  <rect x="516" y="86" width="14" height="240" fill="#e7ebe6" stroke="#14202b" stroke-width="1.5"/>
  <!-- перекрытие 2 эт только справа -->
  <rect x="250" y="200" width="266" height="14" fill="#8a9299"/>
  <!-- зал -->
  <rect x="84" y="86" width="166" height="240" fill="#f6e2d8" stroke="#c8532a" stroke-width="1.5"/>
  <text x="167" y="200" fill="#c8532a" font-size="16" font-weight="700" text-anchor="middle" font-family="'Space Grotesk', sans-serif">ЗАЛ</text>
  <text x="167" y="222" fill="#c8532a" font-size="12" text-anchor="middle">80 м² · H 6 м</text>
  <!-- помещения -->
  <text x="383" y="155" fill="#5b6b57" font-size="13" text-anchor="middle" font-family="Inter, sans-serif">спальни (2 эт.)</text>
  <text x="383" y="275" fill="#5b6b57" font-size="13" text-anchor="middle" font-family="Inter, sans-serif">кухня / гостиная (1 эт.)</text>
  <!-- фундамент -->
  <rect x="70" y="326" width="460" height="24" fill="#e7ebe6" stroke="#14202b" stroke-width="1.5"/>
  <rect x="70" y="350" width="460" height="14" fill="#d7dcd8"/>

  <!-- выноски -->
  <text x="540" y="82" fill="#1f5fbf" font-size="11">крыша · монолит 16 см</text>
  <text x="540" y="212" fill="#1f5fbf" font-size="11">перекрытие · 16 см</text>
  <text x="540" y="342" fill="#1f5fbf" font-size="11">ленточный ф-т 50×80</text>
  <text x="540" y="362" fill="#1f5fbf" font-size="11">подбетонка + щебень</text>

  <!-- размер высоты 6 м -->
  <line x1="52" y1="86" x2="52" y2="326" stroke="#c8532a" stroke-width="1"/>
  <line x1="46" y1="86" x2="58" y2="86" stroke="#c8532a" stroke-width="1"/>
  <line x1="46" y1="326" x2="58" y2="326" stroke="#c8532a" stroke-width="1"/>
  <rect x="43" y="198" width="18" height="16" fill="#ffffff"/>
  <text x="52" y="210" fill="#c8532a" font-size="12" text-anchor="middle" transform="rotate(90,52,206)">6 м</text>

  <!-- штамп -->
  <line x1="10" y1="392" x2="630" y2="392" stroke="#8a9299"/>
  <text x="24" y="414" fill="#14202b" font-size="13" font-weight="700" font-family="'Space Grotesk', sans-serif">РАЗРЕЗ 1—1</text>
  <text x="250" y="414" fill="#8a9299" font-size="11">двусветный зал на всю высоту дома</text>
  <text x="616" y="414" fill="#c8532a" font-size="12" text-anchor="end">М 1:100 · Л.03</text>
</svg>
